<?xml version="1.0" encoding="UTF-8" standalone="no"?>
<!-- Created with Inkscape (http://www.inkscape.org/) -->

<svg
   width="210mm"
   height="297mm"
   viewBox="0 0 210 297"
   version="1.1"
   id="svg1"
   inkscape:version="1.3 (0e150ed6c4, 2023-07-21)"
   sodipodi:docname="PatrolPathIcon.svg"
   xmlns:inkscape="http://www.inkscape.org/namespaces/inkscape"
   xmlns:sodipodi="http://sodipodi.sourceforge.net/DTD/sodipodi-0.dtd"
   xmlns:xlink="http://www.w3.org/1999/xlink"
   xmlns="http://www.w3.org/2000/svg"
   xmlns:svg="http://www.w3.org/2000/svg">
  <sodipodi:namedview
     id="namedview1"
     pagecolor="#505050"
     bordercolor="#eeeeee"
     borderopacity="1"
     inkscape:showpageshadow="0"
     inkscape:pageopacity="0"
     inkscape:pagecheckerboard="0"
     inkscape:deskcolor="#d1d1d1"
     inkscape:document-units="mm"
     inkscape:zoom="0.70110129"
     inkscape:cx="318.07102"
     inkscape:cy="489.94347"
     inkscape:window-width="1920"
     inkscape:window-height="1001"
     inkscape:window-x="-9"
     inkscape:window-y="-9"
     inkscape:window-maximized="1"
     inkscape:current-layer="layer1" />
  <defs
     id="defs1">
    <linearGradient
       id="linearGradient8"
       inkscape:collect="always">
      <stop
         style="stop-color:#626262;stop-opacity:1;"
         offset="0"
         id="stop8" />
      <stop
         style="stop-color:#9f9f9f;stop-opacity:1;"
         offset="1"
         id="stop9" />
    </linearGradient>
    <linearGradient
       inkscape:collect="always"
       xlink:href="#linearGradient8"
       id="linearGradient9"
       x1="191.09225"
       y1="139.47461"
       x2="189.98906"
       y2="75.343758"
       gradientUnits="userSpaceOnUse" />
    <filter
       inkscape:collect="always"
       style="color-interpolation-filters:sRGB"
       id="filter9"
       x="-0.0053036056"
       y="-0.0058938825"
       width="1.0106072"
       height="1.0117878">
      <feGaussianBlur
         inkscape:collect="always"
         stdDeviation="0.17839689"
         id="feGaussianBlur9" />
    </filter>
    <filter
       inkscape:collect="always"
       style="color-interpolation-filters:sRGB"
       id="filter10"
       x="-0.03681691"
       y="-0.03681691"
       width="1.0736338"
       height="1.0736338">
      <feGaussianBlur
         inkscape:collect="always"
         stdDeviation="0.40524328"
         id="feGaussianBlur10" />
    </filter>
    <filter
       inkscape:collect="always"
       style="color-interpolation-filters:sRGB"
       id="filter11"
       x="-0.029194674"
       y="-0.029190909"
       width="1.0583861"
       height="1.0583835">
      <feGaussianBlur
         inkscape:collect="always"
         stdDeviation="0.4088144"
         id="feGaussianBlur11" />
    </filter>
  </defs>
  <g
     inkscape:label="Layer 1"
     inkscape:groupmode="layer"
     id="layer1">
    <circle
       style="fill:none;stroke:#919191;stroke-width:5;stroke-dasharray:40, 5;stroke-dashoffset:0;fill-opacity:1;stroke-opacity:1;filter:url(#filter11)"
       id="path1"
       cx="107.93138"
       cy="141.8958"
       r="59.626427"
       inkscape:export-filename="..\..\..\..\..\..\..\Downloads\PatrolPathIcon.png"
       inkscape:export-xdpi="96"
       inkscape:export-ydpi="96" />
    <circle
       style="fill:#9e9e9e;fill-opacity:1;stroke:none;stroke-width:2;stroke-dasharray:none;stroke-dashoffset:0;stroke-opacity:1;filter:url(#filter10)"
       id="path5"
       cx="122.27191"
       cy="106.79922"
       r="13.208385" />
    <path
       id="path7"
       style="display:inline;opacity:1;fill:url(#linearGradient9);stroke:none;stroke-width:1;stroke-dasharray:none;stroke-dashoffset:0;stroke-opacity:1;fill-opacity:1;filter:url(#filter9)"
       d="m 110.49897,96.892844 6.96035,3.779086 c 0,0 3.76816,-10.660762 7.89475,-14.141808 3.34011,-2.817599 12.35959,-4.370041 12.35959,-4.370041 l -0.91934,27.163069 -0.0487,-0.021 c 0,0 -3.38609,11.27428 -6.88949,15.84582 -3.53704,4.61544 -13.63924,10.87601 -13.63924,10.87601 l 6.58777,8.26164 c 0,0 11.62442,-7.20356 15.69441,-12.51435 3.51018,-4.58032 6.90273,-15.87635 6.90273,-15.87635 l 14.25833,8e-5 c 0,0 8.28486,4.33404 11.32416,7.75314 3.86316,4.34591 8.09978,15.44967 8.09978,15.44967 l 9.3586,-4.90653 c 0,0 -4.87501,-12.7765 -9.32015,-17.77716 -4.2706,-4.80432 -10.60796,-7.26287 -15.91182,-10.89447 l 7e-5,-20.515473 c 0,0 6.07766,4.166855 9.51416,4.001579 6.99788,-0.336557 18.50262,-9.970203 18.50262,-9.970203 l -3.95579,-7.393483 c 0,0 -7.65945,6.422972 -12.34413,6.826895 -5.39969,0.465573 -9.77843,-5.403911 -15.36514,-5.317273 l -22.76838,0.389172 c 0,0 -11.75846,1.169243 -16.11862,4.674136 -5.52604,4.442083 -10.17652,18.677844 -10.17652,18.677844 z"
       transform="rotate(19.666632)"
       sodipodi:nodetypes="ccacccaccaccaccaccaccaccac" />
  </g>
</svg>
